<svg id="Group_13" data-name="Group 13" xmlns="http://www.w3.org/2000/svg" width="34.615" height="34.615" viewBox="0 0 34.615 34.615">
  <path id="Path_7" data-name="Path 7" d="M1428.243,471.635a12.69,12.69,0,0,0-.8-4.2,8.848,8.848,0,0,0-5.062-5.062,12.7,12.7,0,0,0-4.2-.8c-1.846-.084-2.435-.1-7.136-.1s-5.29.02-7.136.1a12.7,12.7,0,0,0-4.2.8,8.851,8.851,0,0,0-5.062,5.062,12.708,12.708,0,0,0-.8,4.2c-.084,1.846-.1,2.436-.1,7.136s.02,5.29.1,7.136a12.708,12.708,0,0,0,.8,4.2,8.851,8.851,0,0,0,5.062,5.062,12.693,12.693,0,0,0,4.2.8c1.846.084,2.436.1,7.136.1s5.29-.02,7.136-.1a12.692,12.692,0,0,0,4.2-.8,8.847,8.847,0,0,0,5.062-5.062,12.69,12.69,0,0,0,.8-4.2c.084-1.846.1-2.436.1-7.136S1428.327,473.482,1428.243,471.635Z" transform="translate(-1393.732 -461.464)" fill="#fff"/>
  <path id="Path_8" data-name="Path 8" d="M1423.3,482.14a8.888,8.888,0,1,0,8.887,8.887A8.888,8.888,0,0,0,1423.3,482.14Zm0,14.657a5.769,5.769,0,1,1,5.769-5.769A5.769,5.769,0,0,1,1423.3,496.8Z" transform="translate(-1405.988 -473.72)" fill="#1e1e1e"/>
  <ellipse id="Ellipse_16" data-name="Ellipse 16" cx="2.077" cy="2.077" rx="2.077" ry="2.077" transform="translate(25.266 4.48)" fill="#1e1e1e"/>
</svg>
