<svg xmlns="http://www.w3.org/2000/svg" width="49.451" height="34.615" viewBox="0 0 49.451 34.615">
  <path id="Path_9" data-name="Path 9" d="M1725.166,771.042a6.194,6.194,0,0,0-4.372-4.372c-3.856-1.034-19.32-1.034-19.32-1.034s-15.464,0-19.32,1.034a6.193,6.193,0,0,0-4.372,4.372c-1.033,3.856-1.033,11.9-1.033,11.9s0,8.046,1.033,11.9a6.193,6.193,0,0,0,4.372,4.372c3.857,1.033,19.32,1.033,19.32,1.033s15.464,0,19.32-1.033a6.194,6.194,0,0,0,4.372-4.372c1.034-3.856,1.034-11.9,1.034-11.9S1726.2,774.9,1725.166,771.042Zm-28.637,19.32V775.527l12.847,7.417Z" transform="translate(-1676.749 -765.637)" fill="#fff"/>
</svg>
