<svg xmlns="http://www.w3.org/2000/svg" width="83" height="102.137" viewBox="0 0 83 102.137">
  <path id="chicken-01" d="M79.171,19.481c1.233.049,2.848.284,3.132.832.2-2.146-1.949-3.024-2.651-3.175a2.006,2.006,0,0,0-.119-.843c.952-.1,4.211-1.057,3.35-3.912-.449-1.489-.755-2.409-.864-3.045s-.636-1.162-1.075-.548c-.33-1.447-1.008-3-1.029-3.2s-.33-.657-.59.176a10.368,10.368,0,0,1-.744,1.819A14.5,14.5,0,0,0,77.749,3.2c-.341-.966-.671-1.078-.913-.59s-1.046,3.143-1.2,3.375-.263.077-.32-.105A23.064,23.064,0,0,1,74.8,3,8.2,8.2,0,0,0,73.949.454c-.263-.383-.723-.79-.832,0s-.19,2.971-.242,3.515c-.039.421-.274.615-.467.214a15.025,15.025,0,0,0-1.45-3.75c-.306-.449-.853-.678-.931-.021s-.165,3.406-.218,3.768-.13.59-.372.284a7.4,7.4,0,0,0-1.721-2.356c-.952-.646-1.226.341-1.436.734-.646,1.215-1.313,1.865-1.8,2.732a5.751,5.751,0,0,0,.5,6.307c1.714,2.012,3.768,1.05,5.587,1.731-3.024.832-5.4,3.1-6.792,4.425-3.944,3.768-6.662,5.893-8.544,7.821s-3.7,3.269-4.909,4.337a16.993,16.993,0,0,1-7.929,3.944,39.771,39.771,0,0,0-8.762,3.154c-1.352.716-2.212,2.037-2.978,2.037a1.4,1.4,0,0,1-1.331-1.068c-.33-1.054.249-1.426.411-2.121a4.163,4.163,0,0,1-.509.344,3.129,3.129,0,0,0,.2-1.2,1.937,1.937,0,0,1-.32.46c.105-.706-.811-.906-.987-.945a2.823,2.823,0,0,1-1.931-1.949,6.467,6.467,0,0,0,.33,1.538,4.236,4.236,0,0,0-.976-1.4,7.716,7.716,0,0,1,.411,1.054A3.544,3.544,0,0,1,24.8,32.958a2.969,2.969,0,0,0,.242,1.068c-1.373-1.492-3.445-4.934-4.221-5.963-2.258-3-6.581-6.486-14.373-3.484a2.713,2.713,0,0,0-2.037.79,4.22,4.22,0,0,1,1.566-.06c-1.566.06-2.047.383-2.307.734a5.543,5.543,0,0,1,1.032,0c-1.707.067-1.64,1.015-1.436,1.4-.379.169-1.145.65-1.3.73a9.332,9.332,0,0,1,1.528-.021A4.536,4.536,0,0,0,.681,29.261a2.528,2.528,0,0,1,1.2-.077,4.818,4.818,0,0,0-1.763.976,3.162,3.162,0,0,0,.056,1.749,2.783,2.783,0,0,0,2.4.116c-1.141,4.871-.386,13.155.534,15.058.755,1.566.706.018.773-.295s.344-3.6.428-3.877a14.638,14.638,0,0,0,3.533,7.361,3.234,3.234,0,0,1-.081-.59,3.165,3.165,0,0,0,1.018,1.085c-.018.741.558,1.271.576,1.872.067,2.332,1.363,3.055,1.4,4.207a12.243,12.243,0,0,0,1.117-1.2A12.631,12.631,0,0,0,15.251,59.2c1.029.79,1.773,2.346,2.037,1.995s.636-1.05,1.226.372.987,1.008,1.665,0c.811.832,2.841.657,3.024,1.292.878,3.045,2.075,4.3,3.441,5.236,1.8,1.226,3.965.678,4.843,1.226a4.3,4.3,0,0,0-2.63,4.383,2.68,2.68,0,0,0-1.183,2.258c-.351,6.167-1.977,12.312-4.119,12.516a5.992,5.992,0,0,0-1.861.334,3.015,3.015,0,0,1-1.622.242,2.44,2.44,0,0,0-2.1,1.008,2.672,2.672,0,0,1,1.524,0c.13.811,1.447.878,1.872.513.414.1,1.05-.207,1.6-.088a1.134,1.134,0,0,0,.558.79,1.477,1.477,0,0,0-.811,1.173c-.06.334-.815.709-1,2.026a1.515,1.515,0,0,1-.379.9c-.527.723-.1,1.2-.608,1.5a1.419,1.419,0,0,0,1.545-.527,4.774,4.774,0,0,0,1.938-2.068,2.86,2.86,0,0,0,.478,1.889,4.655,4.655,0,0,0,.639,2.76,2.058,2.058,0,0,0,1.468,1.868,1.426,1.426,0,0,1,.885,1.345,1.68,1.68,0,0,0,.295-1.612,3.5,3.5,0,0,0-.576-1.471,2.927,2.927,0,0,0,1.619.428c.446.021,1.19.85,2.318.025s1.348-.79,1.787-.783a2.07,2.07,0,0,0-1.953-.309,3.374,3.374,0,0,0-1.945-.744A3.912,3.912,0,0,1,27.57,97a3.609,3.609,0,0,1-.327-1.377c-.081-1.264-.46-2.6.313-3.385s.9-2.662,1.233-3.319a19.1,19.1,0,0,0,.692-3.649,24.916,24.916,0,0,1,2.135-6.735c2.054-.362,5.7-3.55,8.923-3.55a6.483,6.483,0,0,0,1.38,5.489,53.872,53.872,0,0,1,4.47,6.869c.622,2.009.291,2.521-.13,2.992-.625.688-2.135,1.152-.92,1.51a2.911,2.911,0,0,0,2.367-.263,5.984,5.984,0,0,1,.558,1.608,8.356,8.356,0,0,1-.411,1.907,13.424,13.424,0,0,0-.822,2.135,2.215,2.215,0,0,0-.246,2.613,2.648,2.648,0,0,1,.741-1.348,1.173,1.173,0,0,0,1.233-.608c.116-.393.214-1.612.509-1.809s1.3,1.166,1.823,1.363a2.625,2.625,0,0,0,1.183.081c.674.428.881,1.057,1.4,1.134,1.3.2,2.068,1.166,2.546.657a2.12,2.12,0,0,1,1.545.969,2.311,2.311,0,0,0-.442-2.037,1.089,1.089,0,0,0-1.036-1.117c1.215-.1,1.264-.478,1.71-.411a3.426,3.426,0,0,0,2.564-.541c.33-.263.871-.049,1.612.049s1.085-.081,1.25-.295c.59-.33,1.71.214,1.71.639.411-1.528-1.38-2.3-1.889-2.283-.59-1-2.1-.674-2.729-.263a1.645,1.645,0,0,1-1.282.33,6.725,6.725,0,0,0-2.037.362c-.478.214-1.858-.239-2.613-.313-1.018-.1-1.626-.442-1.759-1.018a13.234,13.234,0,0,0-1.636-3.364c-1.029-1.665-3.35-5.345-3.877-9.31,2.806-2.869,2.507-8.456,2.507-9.376a15.586,15.586,0,0,1,4.14-3.122c4.734-2.76,8.326-3.543,10.419-6.409,3.687-5.057,9.109-8.112,10.489-15.111a45.435,45.435,0,0,0-.639-17.685A5.552,5.552,0,0,0,81.2,30.455C84.6,27.828,82.7,22.307,79.171,19.481Z" transform="translate(-0.026 -0.002)" fill="#a5823b"/>
</svg>
