<svg xmlns="http://www.w3.org/2000/svg" width="88.929" height="105.09" viewBox="0 0 88.929 105.09">
  <g id="Die-cut" transform="translate(-0.21)">
    <g id="Group_689" data-name="Group 689" transform="translate(0.21)">
      <path id="Path_1148" data-name="Path 1148" d="M38.623,71.36C40.89,69.791,41.5,68.521,42,64.711a.959.959,0,0,0-1.581-.881c-.194-.013-1.024,2.035-1.283,2.009-.194-.013.35-2.19.13-2.2a10.382,10.382,0,0,1-6.713-1.464c-2.061-1.387-4.173-6.026-7.646-6.856,4.329.117,4.756-.35,9.785-5.313-4.16-2.164-5.676-4.043-10.873-2.67-2.229.6-4.018,2.747-6.182,1.724-2.138-1-12.83-3.862-17.431-2.177V89.451c2.929,0,6.532-3.927,8.8-4.925-.272,2.177,1.594,2.385,2.851,3.681a27.862,27.862,0,0,1,2.76,3.11c3.473-.013,4.769-.013,5.806-.026-5.067-6.933-4.264-12.869-4.264-12.869,7.037-.311,14.256-2.514,16.848-4.6,1.166-.946,1.555-2.268,3.058-2.346l2.553-.117Z" transform="translate(-0.21 13.721)" fill="#a58239" fill-rule="evenodd"/>
      <path id="Path_1149" data-name="Path 1149" d="M44.662,0,.21,27.643V51c15.681-8.735,42.884-.7,49.623-3.058A9.394,9.394,0,0,1,48.614,43.7a5.18,5.18,0,0,1,1.231-3.279c2.566.557,6.946,4.225,7.711,4.056.156-.026-1.037-.907-.765-1.179.389-.389.894-.959,1.477-1.529A6.245,6.245,0,0,1,61.7,39.708c.842-.065,2.022-.078,3.149-.13a10.067,10.067,0,0,0,2.851-.4c.078-.039.752-.324,1.4-.622s1.283-.57,1.309-.57c-.661,2.631-3.784,4.964-6.1,4.8a2.962,2.962,0,0,0,3.214.726,27.061,27.061,0,0,0,2.955-1.361,12.122,12.122,0,0,0,2.177-1.387c.531,1.84-2.242,5.4-4,5.754,1.879,2.294,3.382,4.847,3.577,6.985a3.165,3.165,0,0,0,.959,2.022c1.257,1.231,3.382,4.186,5.326,5.728.57.454,1.231.091,1.724.4,3.706,2.32-2.074,8.515-3.357,8.994A134.989,134.989,0,0,1,55.5,71.836C46.515,74.816,37.482,95.448,35.02,105.09c4.147-6.234,9.772-8.489,16.575-9.2-.752-6.6,3.875-11.651,5.819-12.649-.454-.855-3.007.505-4.043-.026-1.257-.648-1.166-2.9,1.244-3.655,3.486-1.089,4.212.92,4.964,1.037a3.406,3.406,0,0,0-1.685-2.436c3.033-1.594,4.419.156,5.352,1.387-.026-.078,1.257,1.724,1.27,1.49-.233-1.309-.311-1.62.531-2.035,2.488,1.218,1.464,5,1.607,5.676,0,.013,2.074,1.633,2.2,2.942l-.946-.078c-2.8.518-2.929,2.346-2.307,4.678,1.205,4.51,7.543,6.972,4.173,12.869H89.139V27.643ZM28.281,31.259c-3.408-3.11-4.458-7.62-7.076-11.2a4.456,4.456,0,0,0-1.127-1.335c-.013-.013-.013-.026,0-.026a5.084,5.084,0,0,1,1.49-.324,32.082,32.082,0,0,1,11.158.661,17.8,17.8,0,0,1,1.84.57,13.922,13.922,0,0,1,7.1,5.65,1.2,1.2,0,0,0-.065.13A14.236,14.236,0,0,0,40.476,28.9a35.513,35.513,0,0,0-13.387-8.048c-.026-.013-.052.026-.013.039a38.831,38.831,0,0,1,10.6,7.089c.907.829,1.775,1.7,2.6,2.579v.078c-.1,1.879-.713,2.773-3.888,2.773-.194,0-.4,0-.622-.013h-.22a2.974,2.974,0,0,0-2.151.726A13.512,13.512,0,0,1,28.281,31.259Zm38.5-13.582A33.769,33.769,0,0,1,62.08,29.6a17.358,17.358,0,0,1-1.322,1.763,15.367,15.367,0,0,1-11.884,5.573,16.806,16.806,0,0,1-6.052-1.14.013.013,0,0,1-.013-.013A39.1,39.1,0,0,0,61.95,22.641c.013-.026,0-.052-.026-.052s-.013,0-.026.013a41.7,41.7,0,0,1-12,8.527A71.5,71.5,0,0,1,42.446,34.2c-.1.039-.194.065-.285.1-1.918.687-3.862,1.335-5.806,2a3.582,3.582,0,0,1-1.089.246,1.287,1.287,0,0,1-.674-.181.776.776,0,0,1-.363-.933c.181-.492.778-.583,1.3-.583h.168c.233.013.454.013.674.013a8.179,8.179,0,0,0,3.136-.492,3.392,3.392,0,0,0,2.061-2.449,5.857,5.857,0,0,0,.181-1.244c.013-.168.026-.337.039-.492a12.144,12.144,0,0,1,.765-3.253,9.637,9.637,0,0,1,.4-.933,14.289,14.289,0,0,1,6.428-6.571c4.834-2.385,10.458-1.568,15.565-2.89a5.387,5.387,0,0,0,1.957-.661h.013c.013,0,.013,0,.013.013A6.2,6.2,0,0,1,66.784,17.677Z" transform="translate(-0.21)" fill="#a58239"/>
    </g>
  </g>
</svg>
