<svg id="Group_13" data-name="Group 13" xmlns="http://www.w3.org/2000/svg" width="31.13" height="31.13" viewBox="0 0 31.13 31.13">
  <path id="Path_7" data-name="Path 7" d="M1424.768,470.611a11.413,11.413,0,0,0-.724-3.778,7.957,7.957,0,0,0-4.552-4.552,11.422,11.422,0,0,0-3.778-.723c-1.66-.076-2.19-.094-6.417-.094s-4.757.018-6.418.094a11.423,11.423,0,0,0-3.778.723,7.959,7.959,0,0,0-4.552,4.552,11.427,11.427,0,0,0-.723,3.778c-.076,1.66-.094,2.19-.094,6.418s.018,4.757.094,6.417a11.427,11.427,0,0,0,.723,3.778,7.959,7.959,0,0,0,4.552,4.552,11.415,11.415,0,0,0,3.778.723c1.66.076,2.191.094,6.418.094s4.757-.018,6.417-.094a11.414,11.414,0,0,0,3.778-.723,7.956,7.956,0,0,0,4.552-4.552,11.413,11.413,0,0,0,.724-3.778c.076-1.66.094-2.19.094-6.417S1424.844,472.272,1424.768,470.611Z" transform="translate(-1393.732 -461.464)" fill="#fff"/>
  <path id="Path_8" data-name="Path 8" d="M1422.4,482.14a7.993,7.993,0,1,0,7.993,7.993A7.993,7.993,0,0,0,1422.4,482.14Zm0,13.181a5.188,5.188,0,1,1,5.188-5.188A5.188,5.188,0,0,1,1422.4,495.321Z" transform="translate(-1406.836 -474.568)" fill="#090909"/>
  <ellipse id="Ellipse_16" data-name="Ellipse 16" cx="1.868" cy="1.868" rx="1.868" ry="1.868" transform="translate(22.723 4.029)" fill="#090909"/>
</svg>
